<?xml version="1.0" encoding="UTF-8" standalone="no"?>
<svg
   xmlns:osb="http://www.openswatchbook.org/uri/2009/osb"
   xmlns:dc="http://purl.org/dc/elements/1.1/"
   xmlns:cc="http://creativecommons.org/ns#"
   xmlns:rdf="http://www.w3.org/1999/02/22-rdf-syntax-ns#"
   xmlns:svg="http://www.w3.org/2000/svg"
   xmlns="http://www.w3.org/2000/svg"
   xmlns:sodipodi="http://sodipodi.sourceforge.net/DTD/sodipodi-0.dtd"
   xmlns:inkscape="http://www.inkscape.org/namespaces/inkscape"
   xml:space="preserve"
   style="enable-background:new 0 0 480 480;"
   viewBox="0 0 480 480"
   y="0px"
   x="0px"
   id="Layer_1"
   version="1.1"
   sodipodi:docname="ResistorCreature_angry copy.svg"
   inkscape:version="0.92.4 (5da689c313, 2019-01-14)"><sodipodi:namedview
   pagecolor="#ffffff"
   bordercolor="#666666"
   borderopacity="1"
   objecttolerance="10"
   gridtolerance="10"
   guidetolerance="10"
   inkscape:pageopacity="0"
   inkscape:pageshadow="2"
   inkscape:window-width="2880"
   inkscape:window-height="1675"
   id="namedview10844"
   showgrid="false"
   inkscape:zoom="30.042344"
   inkscape:cx="260.03816"
   inkscape:cy="211.98376"
   inkscape:window-x="-13"
   inkscape:window-y="-13"
   inkscape:window-maximized="1"
   inkscape:current-layer="Layer_1" /><metadata
   id="metadata917"><rdf:RDF><cc:Work
       rdf:about=""><dc:format>image/svg+xml</dc:format><dc:type
         rdf:resource="http://purl.org/dc/dcmitype/StillImage" /><dc:title></dc:title></cc:Work></rdf:RDF></metadata><defs
   id="defs915"><inkscape:perspective
     sodipodi:type="inkscape:persp3d"
     inkscape:vp_x="0 : 240 : 1"
     inkscape:vp_y="0 : 1000 : 0"
     inkscape:vp_z="480 : 240 : 1"
     inkscape:persp3d-origin="240 : 160 : 1"
     id="perspective839" /><linearGradient
     osb:paint="solid"
     id="linearGradient2610"><stop
       id="stop2608"
       offset="0"
       style="stop-color:#000000;stop-opacity:1;" /></linearGradient></defs>
<style
   id="style898"
   type="text/css">
	.st0{fill:#FFFFFF;}
	.st1{fill:#0C7F99;}
</style>
<path
   style="fill:#37ffff;fill-opacity:1"
   id="reye"
   d="m 225.76055,189.232 c 0,4.2 -1.4,8.2 -3.7,11.3 l -30.4,0.3 c -2.6,-3.1 -4,-7.3 -4,-11.6 0,-10.5 8.5,-19 19,-19 10.6,-0.1 19.1,8.5 19.1,19 z"
   class="st0"
   inkscape:label="right eye"
   inkscape:connector-curvature="0" />
<path
   style="fill:#6affff;fill-opacity:1"
   id="leye"
   d="m 323.73298,189.482 c 0,4.2 -1.4,8.2 -3.7,11.3 l -30.4,0.3 c -2.6,-3.1 -4,-7.3 -4,-11.6 0,-10.5 8.5,-19 19,-19 10.6,-0.1 19.1,8.5 19.1,19 z"
   class="st0"
   inkscape:label="left eye"
   inkscape:connector-curvature="0" />
<path
   id="rpupil"
   d="m 203.91055,179.082 c -1.3,0.1 -2.3,1.1 -2.3,2.4 0,1.3 1.1,2.4 2.4,2.4 1.3,0 2.4,-1.1 2.4,-2.4 0,-1.3 -1.1,-2.4 -2.4,-2.4 0,0 -0.1,0 -0.1,0 l 2.9,-1 c 4.3,0 7.7,3.5 7.7,7.7 0,4.2 -3.5,7.7 -7.7,7.7 -4.2,0 -7.7,-3.5 -7.7,-7.7 0,-4.2 3.5,-7.7 7.7,-7.7"
   inkscape:label="right pupil"
   inkscape:connector-curvature="0" />
<path
   id="lpupil"
   d="m 302.13298,180.082 c -1.3,0.1 -2.3,1.1 -2.3,2.4 0,1.3 1.1,2.4 2.4,2.4 1.3,0 2.4,-1.1 2.4,-2.4 0,-1.3 -1.1,-2.4 -2.4,-2.4 0,0 -0.1,0 -0.1,0 l 2.9,-1 c 4.3,0 7.7,3.5 7.7,7.7 0,4.2 -3.5,7.7 -7.7,7.7 -4.2,0 -7.7,-3.5 -7.7,-7.7 0,-4.2 3.5,-7.7 7.7,-7.7"
   inkscape:label="left pupil"
   inkscape:connector-curvature="0" />
<path
   id="body"
   style="fill:#9999dc;fill-opacity:1;fill-rule:evenodd;stroke:#000000;stroke-width:1.12687039px;stroke-linecap:butt;stroke-linejoin:miter;stroke-opacity:1"
   d="m 172.77945,229.34594 c 0,-28.1719 28.17126,-28.1719 39.4405,-28.1719 11.26886,0 16.90292,5.63411 45.07459,5.63411 28.17116,0 33.80635,-5.63411 45.07502,-5.63411 11.26848,0 39.44018,0 39.44018,28.1719 0,28.17173 -28.1717,28.17173 -39.44018,28.17173 -11.26867,0 -16.90386,-5.63498 -45.07502,-5.63498 -28.17167,0 -33.80573,5.63498 -45.07459,5.63498 -11.26924,0 -39.21312,0.80612 -39.4405,-28.17173 z"
   inkscape:label="Body"
   inkscape:connector-curvature="0" />
<path
   id="mouth"
   d="m 239.72477,271.44587 c 6.02774,0.18673 6.50038,0.1463 15.27103,0.0316 6.81915,-0.0488 12.50229,-0.21008 17.63288,-0.25679 l -0.33767,-3.4933 c -4.83225,0.26856 -12.34308,0.22458 -17.52253,0.17375 -6.33731,-0.0622 -10.73328,0.0554 -15.49459,0.0514"
   inkscape:label="mouth"
   inkscape:connector-curvature="0"
   style="stroke-width:1.12687039"
   sodipodi:nodetypes="ccccsc" />
<path
   id="color1"
   style="fill:#e50000;fill-opacity:1;fill-rule:evenodd;stroke:none;stroke-width:1.12687039px;stroke-linecap:butt;stroke-linejoin:miter;stroke-opacity:1"
   d="M 211.65609,201.15672 V 257.5 c 4.04972,0 7.3672,-0.72277 11.2689,-1.65539 v -53.03306 c -3.9017,-0.93248 -7.21918,-1.65483 -11.2689,-1.65483 z"
   inkscape:label="first color"
   inkscape:connector-curvature="0" />
<path
   id="color2"
   style="fill:#a700e0;fill-opacity:1;fill-rule:evenodd;stroke:none;stroke-width:1.12687039px;stroke-linecap:butt;stroke-linejoin:miter;stroke-opacity:1"
   d="M 228.55925,204.02669 V 254.665 c 3.10584,-0.68642 6.73848,-1.38323 11.26883,-1.90133 v -46.83558 c -4.53035,-0.51837 -8.16299,-1.21497 -11.26883,-1.9014 z"
   inkscape:label="second"
   inkscape:connector-curvature="0" />
<path
   id="color3"
   style="fill:#008f00;fill-opacity:1;stroke:none;stroke-width:1.12687039;stroke-linecap:square;stroke-miterlimit:4;stroke-dasharray:1.12686855, 1.12686855;stroke-dashoffset:0;stroke-opacity:1"
   d="m 245.46244,206.421 v 45.8496 c 3.30801,-0.22937 7.02261,-0.37625 11.26863,-0.38791 v -45.07454 c -4.24602,-0.005 -7.96062,-0.15785 -11.26863,-0.38715 z"
   inkscape:label="third color"
   inkscape:connector-curvature="0" />
<path
   id="color4"
   style="opacity:1;fill:#ffdd55;fill-opacity:1;stroke:none;stroke-width:1.12687039;stroke-linecap:square;stroke-miterlimit:4;stroke-dasharray:1.12686855, 1.12686855;stroke-dashoffset:0;stroke-opacity:1"
   d="m 290.53733,202.96992 c -3.14052,0.75419 -6.66799,1.60438 -11.26854,2.32434 v 48.10298 c 4.60055,0.72008 8.12802,1.57052 11.26854,2.32359 z"
   inkscape:label="fourth color"
   inkscape:connector-curvature="0" />

<path
   d="m 103.4629,223.36109 -13.99509,-0.0141 -0.234881,10.52399 14.131871,0.051 c 26.05359,0.094 42.31038,0.10015 54.67092,0.10015 h 14.50466 v -10.54897 h -14.88125 c -20.53718,0.13767 -39.38446,-0.13829 -54.19623,-0.11205 z"
   id="rhand"
   inkscape:connector-curvature="0"
   style="fill:#999999;fill-opacity:1;stroke-width:0.27578446"
   inkscape:label="right hand"
   sodipodi:nodetypes="cccsscccc" /><path
   d="m 410.77648,223.36096 13.99509,-0.0141 0.23488,10.52399 -14.13187,0.051 c -26.05359,0.094 -42.31038,0.10015 -54.67092,0.10015 H 341.699 v -10.54897 h 14.88125 c 20.53718,0.13767 39.38446,-0.13829 54.19623,-0.11205 z"
   id="rhand-3"
   inkscape:connector-curvature="0"
   style="fill:#999999;fill-opacity:1;stroke-width:0.27578446"
   inkscape:label="right hand"
   sodipodi:nodetypes="cccsscccc" /></svg>
